# xmcd
#
# Track frame offsets:
#	182
#	27795
#	52287
#	80467
#
# Disc length: 1300 seconds
#
# Revision: 2
# Processed by: cddbd v1.5.1PL0 Copyright (c) Steve Scherf et al.
# Submitted via: dBpowerAMP V4.0
#
DISCID=2c051204
DTITLE=Soulmix - CD-Single
DYEAR=1990
DGENRE=Mix
TTITLE0=The Sam and Dave Soulmix
TTITLE1=The Soul Groove Mix
TTITLE2=The Sam and Dave Soulmix (Live)
TTITLE3=Trash
EXTD=
EXTT0=
EXTT1=
EXTT2=
EXTT3=
PLAYORDER=
